#!OML:ASF H:\GeneralSubjects\Female5\Project 1\Capture day 1\Session 1\Female5.ASF
:FULLY-SPECIFIED
:DEGREES
404
root 2.37782 16.0378 0.622728 154.359 -61.9487 197.043
lowerback 21.4675 1.2837 -5.51063
upperback -4.50581 1.13357 6.69483
thorax -17.3801 1.49216 10.3131
lowerneck -13.7288 -4.86911 -7.53101
upperneck 28.8597 -3.8305 -8.18904
head 11.8029 -4.04116 -2.41518
rclavicle -4.60187e-014 -5.56597e-015
rhumerus -56.0664 62.732 -107.137
rradius 52.6932
rwrist -27.7542
rhand -16.0115 2.51289
rfingers 7.12502
rthumb 10.189 -27.2204
lclavicle -4.60187e-014 -5.56597e-015
lhumerus -43.7418 -26.174 107.67
lradius 57.4691
lwrist 4.98209
lhand -26.9232 21.3554
lfingers 7.12502
lthumb -0.34596 51.3348
rfemur -37.235 -11.3496 35.7788
rtibia 83.7714
rfoot 30.4841 -24.2777
rtoes -17.9276
lfemur -45.0555 0.416679 -25.8804
ltibia 79.6118
lfoot 188.891 -28.1333
ltoes -58.9335
405
root 2.37431 16.0383 0.6184 154.463 -61.9617 197.038
lowerback 21.5074 1.27389 -5.59785
upperback -4.51208 1.09701 6.71217
thorax -17.4059 1.48845 10.3996
lowerneck -13.6855 -4.72776 -7.33922
upperneck 29.0392 -3.6319 -8.41959
head 11.8561 -3.9783 -2.51442
rclavicle 9.93923e-015 -2.66371e-014
rhumerus -56.2024 62.9342 -107.316
rradius 52.7288
rwrist -27.6037
rhand -15.6147 2.34308
rfingers 7.12502
rthumb 10.5718 -27.371
lclavicle 9.93923e-015 -2.66371e-014
lhumerus -43.6315 -25.9779 107.633
lradius 57.385
lwrist 4.99455
lhand -26.8626 21.5225
lfingers 7.12502
lthumb -0.287381 51.502
rfemur -37.2986 -11.2047 35.8234
rtibia 83.7657
rfoot 30.3899 -24.4386
rtoes -17.2648
lfemur -45.1481 0.379339 -25.8583
ltibia 79.6253
lfoot 189.38 -27.7932
ltoes -59.4359
406
root 2.36857 16.0391 0.612521 154.369 -61.9557 197.199
lowerback 21.5218 1.24972 -5.6053
upperback -4.45018 1.06474 6.75826
thorax -17.3343 1.47068 10.4659
lowerneck -11.1681 -4.58113 -8.51951
upperneck 26.9613 -3.85475 -7.12192
head 10.6139 -3.89752 -1.67673
rclavicle -8.05078e-015 -8.74653e-015
rhumerus -56.3073 63.2283 -107.429
rradius 52.8465
rwrist -27.727
rhand -15.4501 2.45784
rfingers 7.12502
rthumb 10.7306 -27.2481
lclavicle -8.05078e-015 -8.74653e-015
lhumerus -43.503 -25.7524 107.541
lradius 57.457
lwrist 5.01462
lhand -26.719 21.8748
lfingers 7.12502
lthumb -0.14871 51.8545
rfemur -37.2965 -11.0917 35.9384
rtibia 83.8675
rfoot 30.1082 -24.5281
rtoes -16.8062
lfemur -45.1912 0.369103 -25.7804
ltibia 79.5765
lfoot 189.004 -27.7772
ltoes -59.2064
407
root 2.35842 16.0412 0.606654 154.074 -61.9107 197.584
lowerback 21.4526 1.21438 -5.52028
upperback -4.39516 1.0518 6.86712
thorax -17.2303 1.45323 10.5442
lowerneck -12.8976 -4.66748 -7.79078
upperneck 28.6346 -3.63211 -8.17064
head 11.5581 -3.97204 -2.29625
rclavicle -6.65929e-015 1.35174e-014
rhumerus -56.4878 63.5439 -107.576
rradius 52.9302
rwrist -27.9215
rhand -15.6299 2.61599
rfingers 7.12502
rthumb 10.5572 -27.0989
lclavicle -6.65929e-015 1.35174e-014
lhumerus -43.4657 -25.509 107.509
lradius 57.5811
lwrist 4.99558
lhand -26.8155 21.7852
lfingers 7.12502
lthumb -0.241885 51.7648
rfemur -37.2356 -11.0412 36.1502
rtibia 83.8892
rfoot 30.0179 -24.4012
rtoes -17.084
lfemur -45.2457 0.356011 -25.6004
ltibia 79.4806
lfoot 188.316 -27.8873
ltoes -58.7303
408
root 2.34728 16.0432 0.601388 153.805 -61.8611 197.958
lowerback 21.3568 1.18084 -5.42973
upperback -4.35735 1.04337 6.97499
thorax -17.1333 1.43827 10.6172
lowerneck -13.2926 -4.68192 -7.64726
upperneck 29.1822 -3.54812 -8.52915
head 11.8458 -4.00755 -2.48994
rclavicle -1.799e-014 5.1684e-014
rhumerus -56.621 63.7882 -107.674
rradius 52.9879
rwrist -28.012
rhand -15.7857 2.66623
rfingers 7.12502
rthumb 10.4069 -27.0562
lclavicle -1.799e-014 5.1684e-014
lhumerus -43.4304 -25.334 107.515
lradius 57.6246
lwrist 4.96774
lhand -26.9177 21.3126
lfingers 7.12502
lthumb -0.34062 51.292
rfemur -37.1638 -10.9706 36.3406
rtibia 83.7402
rfoot 30.1808 -24.1904
rtoes -17.6055
lfemur -45.3181 0.344368 -25.4291
ltibia 79.3739
lfoot 187.737 -27.9854
ltoes -58.3609
409
root 2.33809 16.0452 0.597168 153.805 -61.8949 197.985
lowerback 21.3759 1.17109 -5.51714
upperback -4.3263 1.00945 7.02003
thorax -17.1042 1.43228 10.7325
lowerneck -12.754 -4.61959 -7.9022
upperneck 28.926 -3.55211 -8.27869
head 11.6475 -3.98856 -2.32033
rclavicle -2.3059e-014 6.2816e-014
rhumerus -56.7178 63.9951 -107.723
rradius 53.0549
rwrist -28.164
rhand -15.8309 2.80732
rfingers 7.12502
rthumb 10.3633 -26.9173
lclavicle -2.3059e-014 6.2816e-014
lhumerus -43.3624 -25.2103 107.53
lradius 57.5887
lwrist 4.94927
lhand -26.0976 21.1329
lfingers 7.12502
lthumb 0.451476 51.1122
rfemur -37.1178 -10.9607 36.3158
rtibia 83.6679
rfoot 30.2575 -24.1127
rtoes -18.0442
lfemur -45.2773 0.288382 -25.4425
ltibia 79.3773
lfoot 187.349 -28.0473
ltoes -58.0689
410
root 2.33064 16.0456 0.593036 153.965 -61.9434 197.845
lowerback 21.4092 1.18242 -5.72241
upperback -4.30954 0.970446 7.04686
thorax -17.1013 1.43833 10.8994
lowerneck -11.3242 -4.47982 -8.41852
upperneck 27.8883 -3.61068 -7.69225
head 10.9842 -3.92434 -1.9212
rclavicle 3.13086e-014 -4.6118e-014
rhumerus -56.8556 64.2 -107.827
rradius 53.1065
rwrist -28.3534
rhand -15.7299 2.91044
rfingers 7.12502
rthumb 10.4607 -26.8093
lclavicle 3.13086e-014 -4.6118e-014
lhumerus -43.3908 -25.0532 107.56
lradius 57.6688
lwrist 5.01863
lhand -24.5428 21.6311
lfingers 7.12502
lthumb 1.95309 51.6019
rfemur -37.1751 -10.9883 36.2394
rtibia 83.7566
rfoot 30.3312 -24.0747
rtoes -18.6788
lfemur -45.2524 0.265769 -25.529
ltibia 79.3951
lfoot 187.65 -27.9378
ltoes -58.3238
